<svg width="758" height="144" viewBox="0 0 758 144" xmlns="http://www.w3.org/2000/svg"><g fill-rule="nonzero" fill="none"><path d="M97.826 14.86c-3.81-2.115-14.73-.81-27.842 3.25C47.032 33.8 27.662 56.913 26.31 94.032c-.245.884-2.51-.125-2.958-.398-6.196-11.88-8.65-24.39-3.48-42.435.966-1.608-2.184-3.584-2.753-3.02-1.138 1.14-5.874 6.183-9.02 11.637-15.59 27.04-5.39 61.7 21.88 76.863 27.27 15.19 61.703 5.39 76.89-21.885 17.564-31.484 1.25-94.183-9.045-99.935z" fill="#88B227"/><path d="M195.437 29.968c-32.33 0-55.798 24.037-55.798 57.155 0 33.39 23.4 56.712 56.924 56.712 16.933 0 30.337-5.296 41-16.196 3.178-3.44 3.523-6.753 3.523-8.016 0-5.402-4.02-9.325-9.545-9.325-2.792 0-5.126 1.056-7.796 3.523-6.038 5.628-13.987 11.37-27.182 11.37-18.352 0-33.273-13.77-34.21-31.46h73.022c7.94 0 11.798-3.717 11.798-11.352 0-2.243 0-3.866-.452-7.066-3.93-28.395-23.105-45.347-51.286-45.347zm0 17.73c17.536 0 28.786 11.174 29.48 29.206H162.38c1.64-16.688 15.754-29.206 33.057-29.206zm121.473-17.73c-14.687 0-29.23 8.446-34.91 20.176v-7.248c0-11.23-8.702-11.797-10.445-11.797-5.157 0-10.67 3.095-10.67 11.795v87.557c0 11.663 9.266 12.25 11.122 12.25 1.856 0 11.12-.587 11.12-12.25V83.515c0-20.424 11.575-34.688 28.144-34.688 16.054 0 23.857 10.532 23.857 32.2v49.424c0 11.664 9.265 12.25 11.12 12.25 1.856 0 11.122-.586 11.122-12.25V74.034c-.003-21.304-10.63-44.066-40.46-44.066zM458.02 31.1c-5.144 0-8.87 2.995-11.088 8.896l-30.434 76.537-30.207-76.537c-2.365-5.99-6.062-8.897-11.313-8.897-6.134 0-11.12 4.783-11.12 10.667 0 1.455.16 3.344 1.395 6.292l34.98 82.587c4.164 9.964 11.025 12.053 16.043 12.053 5.01 0 11.87-2.088 16.052-12.047l35.2-83.047c1.206-2.915 1.39-5.054 1.39-6.067-.002-5.953-4.688-10.44-10.896-10.44zm64.68-1.132c-14.226 0-27.474 3.964-37.308 11.15-3.332 2.3-4.955 5.168-4.955 8.774 0 4.968 3.793 8.86 8.643 8.86 2.104 0 4.447-.834 6.603-2.342 8.45-5.633 16.394-8.262 24.988-8.262 16.447 0 25.888 8.367 25.888 22.952v2.418c-36.92.04-74.47 4.5-74.47 36.617 0 23.12 19.755 33.468 39.33 33.468 15.597 0 28.048-6.175 36.037-17.872v5.625c0 8.38 5.623 11.347 10.454 11.347 1.017 0 9.985-.316 9.985-11.346V72.46c0-26.608-16.896-42.49-45.193-42.49l-.002-.002zm19.18 59.93h4.677v5.123c0 18.747-11.933 30.857-30.4 30.857-5.008 0-21.37-1.167-21.37-16.19C494.785 91.95 521.664 89.9 541.88 89.9v-.002zm83.942-38.588c9.738 0 10.228-7.573 10.228-9.09 0-4.504-2.688-9.318-10.228-9.318h-20.014V12.658c0-9.044-5.867-12.25-10.89-12.25-1.858 0-11.12.587-11.12 12.25v96.135c0 22.184 10.938 33.91 31.647 33.91 5.358 0 10.578-.952 13.997-2.537 3.913-1.953 6.155-5.166 6.155-8.81 0-5.144-3.726-8.87-8.868-8.87-.996 0-2.408.245-3.964.69-1.906.48-3.198.664-4.61.664-8.422 0-12.35-5.498-12.35-17.31V51.308h20.015l.002.002zm73.562-21.342c-33.64 0-58.052 23.847-58.052 56.703 0 15.997 5.916 30.574 16.643 41.05 10.654 10.393 25.362 16.116 41.41 16.116 33.227 0 58.287-24.575 58.287-57.164 0-32.855-24.523-56.702-58.288-56.702v-.002zm0 95.007c-23.067 0-35.14-19.27-35.14-38.304 0-26.155 18.22-38.065 35.14-38.065 16.927 0 35.14 11.91 35.14 38.067-.002 26.32-18.213 38.305-35.14 38.305v-.002z" fill="#13110C"/></g></svg>