<svg id="Layer_1" data-name="Layer 1" xmlns="http://www.w3.org/2000/svg" viewBox="0 0 360 240"><defs><style>.cls-1{opacity:0.5;}.cls-10,.cls-2,.cls-3,.cls-5,.cls-6,.cls-8,.cls-9{fill:none;}.cls-10,.cls-2,.cls-3,.cls-6,.cls-8{stroke:#a6abb0;}.cls-10,.cls-2,.cls-3,.cls-5{stroke-linecap:round;stroke-width:4px;}.cls-2{stroke-linejoin:round;}.cls-10,.cls-3,.cls-5,.cls-6,.cls-8,.cls-9{stroke-miterlimit:10;}.cls-10,.cls-3,.cls-4,.cls-7,.cls-8{opacity:0.3;}.cls-4{fill:#81b441;}.cls-5,.cls-9{stroke:#81b441;}.cls-6,.cls-8{stroke-width:2px;}.cls-6{opacity:0.7;}.cls-7{fill:#a6abb0;}.cls-9{stroke-width:3px;}.cls-10{stroke-dasharray:2 8;}</style></defs><title>SellMore</title><g class="cls-1"><line class="cls-2" x1="256.52" y1="218.18" x2="108.81" y2="218.18"/><line class="cls-2" x1="95.2" y1="218.18" x2="57.72" y2="218.18"/><line class="cls-3" x1="330.51" y1="218.18" x2="282.48" y2="218.18"/></g><path class="cls-4" d="M154.76,128.73l-8.61,1.51a1.37,1.37,0,0,0-1.11,1.58l.87,5a1.37,1.37,0,0,0,1.58,1.11l8.61-1.51a1.37,1.37,0,0,0,1.11-1.58l-.87-5A1.37,1.37,0,0,0,154.76,128.73Zm69.66-12.19-8.61,1.51a1.37,1.37,0,0,0-1.11,1.58l.87,5a1.37,1.37,0,0,0,1.58,1.11l8.61-1.51a1.37,1.37,0,0,0,1.11-1.58l-.87-5A1.47,1.47,0,0,0,224.41,116.54Zm9.06-13.22A8.08,8.08,0,0,1,231,104,10.52,10.52,0,0,1,218.8,95.5a16.94,16.94,0,0,1-.18-2.6l-75.85,13.27a9.15,9.15,0,0,1,.46,1.86,10.52,10.52,0,0,1-8.54,12.16,7.35,7.35,0,0,1-1.78.17l5.48,31.34a7.92,7.92,0,0,1,1.73-.44,10.52,10.52,0,0,1,12.16,8.54,8.51,8.51,0,0,1,.2,1.91l75.58-13.22c-.07-.41-.28-.78-.37-1.32A10.52,10.52,0,0,1,236.23,135a15.38,15.38,0,0,1,2.6-.18l-5.51-31.47Zm5.36-20.07L250.6,150.5a2.8,2.8,0,0,1-2.33,3.32l-112,19.6a2.8,2.8,0,0,1-3.32-2.33l-11.77-67.24a2.8,2.8,0,0,1,2.33-3.32L235.65,80.9A3,3,0,0,1,238.83,83.26Zm-49,41.83A33,33,0,0,0,185.8,124a6.26,6.26,0,0,1-2.23-.86,1.88,1.88,0,0,1-.16-3.3,4.06,4.06,0,0,1,1.17-.48,9.71,9.71,0,0,1,4.87.12c.88.26,1,.1,1.12-.75a16.51,16.51,0,0,0,.25-2.54,1,1,0,0,0-.75-1.12,18.78,18.78,0,0,0-3.12-.42c-1.39,0-1.39,0-1.63-1.37-.33-1.88-.33-1.88-2.21-1.55l-.81.14c-.94.16-1.06.32-.89,1.27l.21,1.21c.21,1.21.21,1.21-.93,1.82-2.63,1.57-3.92,3.73-3.67,6.74.34,2.71,2,4.23,4.51,5.17a25.23,25.23,0,0,0,4.63,1.13,10,10,0,0,1,1.78.66,2.21,2.21,0,0,1,.12,3.86,5.08,5.08,0,0,1-2.75.9,11.62,11.62,0,0,1-4.38-.48c-.88-.27-1-.1-1.12.75s-.15,1.55-.3,2.27c-.1,1,.08,1.24,1.09,1.47a12.43,12.43,0,0,0,4,.42c1.1-.06,1.13.08,1.29,1l.26,1.48c.12.67.43.89,1.1.77l2.15-.38a.86.86,0,0,0,.77-1.1l-.35-2a1.09,1.09,0,0,1,.73-1.38,7.77,7.77,0,0,0,3.34-3.08C195.94,131.23,194.15,126.55,189.87,125.09Zm18.41-1.7A22.66,22.66,0,1,1,182.06,105,22.61,22.61,0,0,1,208.29,123.39Z"/><path class="cls-5" d="M245.78,88.13l11.77,67.24a2.8,2.8,0,0,1-2.33,3.32l-112,19.6a2.8,2.8,0,0,1-3.32-2.33L128.1,108.72a2.8,2.8,0,0,1,2.33-3.32L242.59,85.78A3,3,0,0,1,245.78,88.13Z"/><circle class="cls-6" cx="292.25" cy="17.22" r="3.17"/><path class="cls-7" d="M228.65,34.25,226.5,32.1,228.65,30a1.5,1.5,0,1,0-2.12-2.12L224.38,30l-2.14-2.14A1.5,1.5,0,1,0,220.12,30l2.14,2.14-2.14,2.14a1.5,1.5,0,0,0,2.12,2.12l2.14-2.14,2.14,2.14a1.5,1.5,0,1,0,2.12-2.12Z"/><circle class="cls-6" cx="252.5" cy="205.76" r="4"/><circle class="cls-8" cx="125.11" cy="21.22" r="4"/><path class="cls-7" d="M302.81,182.87h-3v-3a1.5,1.5,0,0,0-3,0v3h-3a1.5,1.5,0,0,0,0,3h3v3a1.5,1.5,0,0,0,3,0v-3h3a1.5,1.5,0,0,0,0-3Z"/><path class="cls-9" d="M118.53,120.93c-9-8.31-23.62-6.33-37.85-12-12.21-4.84-27.3-23.13-20.53-1.05,3,10.52,15.09,14.8,24,19.06-4.61.22-18.66-1.36-19.94,2.32-2.07,6,15.41,8.35,20.69,8.59-2.72,1.06-15.79,2.76-16.06,4.55-1.46,4.9,13.23,5.82,16.71,5.8C57.1,161,103.16,161.72,122.17,158.38c18.06-3.16,12.11-10.55,12.11-10.55C124.06,142.64,125.65,128.4,118.53,120.93Z"/><path class="cls-4" d="M117.78,124.52c-9-8.31-23.62-6.33-37.85-12-12.21-4.84-27.3-23.13-20.53-1.05,3,10.52,15.09,14.8,24,19.06-4.61.22-18.66-1.36-19.94,2.32-2.07,6,15.41,8.35,20.69,8.59-2.72,1.06-15.79,2.76-16.06,4.55-1.46,4.9,13.23,5.82,16.71,5.8C56.36,164.6,102.42,165.3,121.43,162c18.06-3.16,12.11-10.55,12.11-10.55C123.32,146.23,124.9,132,117.78,124.52Z"/><path class="cls-9" d="M258.38,96.46c5.65-10.88,20.07-14,31.53-24.12,9.84-8.7,17.83-31,19-8,.74,10.91-9.17,19-16.08,26.07,4.41-1.36,17.09-7.62,19.55-4.59,4,4.9-11.66,13.09-16.54,15.11,2.92.07,15.79-2.76,16.65-1.17,3,4.12-10.47,10-13.75,11.13,31.06,2.38-12,18.68-31,22-18.06,3.16-15-5.81-15-5.81C260.54,118.76,254.22,105.91,258.38,96.46Z"/><path class="cls-4" d="M260.3,99.58c5.65-10.88,20.07-14,31.53-24.12,9.84-8.7,17.83-31,19-8,.74,10.91-9.17,19-16.08,26.07C299.12,92.22,311.8,86,314.25,89c4,4.9-11.66,13.09-16.54,15.11,2.92.07,15.79-2.76,16.65-1.17,3,4.12-10.47,10-13.75,11.13,31.06,2.38-12,18.68-31,22-18.06,3.16-15-5.81-15-5.81C262.46,121.88,256.14,109,260.3,99.58Z"/><path class="cls-3" d="M329.27,106a19.6,19.6,0,0,0,4.92-38.58,25,25,0,0,0-44.05-20.25,23.36,23.36,0,0,0-34.75,20.41,14.8,14.8,0,0,0-8.44,4.3"/><path class="cls-2" d="M96.77,173.66a16.21,16.21,0,0,1-16.21,16.21h-56A16.2,16.2,0,0,1,20.54,158a20.63,20.63,0,0,1,36.41-16.74"/><path class="cls-10" d="M93,97.87A100.14,100.14,0,0,1,214.41,29"/><path class="cls-10" d="M129.11,205.76a100.55,100.55,0,0,1-23.74-25.31"/><path class="cls-10" d="M288.51,142.69a100,100,0,0,1-30.92,58.95"/></svg>