<svg xmlns="http://www.w3.org/2000/svg" viewBox="0 0 360 240" enable-background="new 0 0 360 240"><style type="text/css">.st0{opacity:0.3;fill:#A6ABB0;enable-background:new ;} .st1{opacity:0.7;fill:#A6ABB0;enable-background:new ;} .st2{fill:#E5E6E8;} .st3{fill:#A6ABB0;} .st4{fill:#FFFFFF;} .st5{fill:#81B441;} .st6{opacity:0.22;fill:#81B441;enable-background:new ;} .st7{opacity:0.8;fill:#FFFFFF;enable-background:new ;}</style><path class="st0" d="M326.7 210.9h-77.1c-1.1 0-2-.9-2-2s.9-2 2-2h77.1c1.1 0 2 .9 2 2s-.9 2-2 2zM202.1 210.9h-12c-1.1 0-2-.9-2-2s.9-2 2-2h12c1.1 0 2 .9 2 2s-.9 2-2 2zM175.6 210.9h-59.2c-1.1 0-2-.9-2-2s.9-2 2-2h59.2c1.1 0 2 .9 2 2s-.9 2-2 2zM73.6 210.9h-40.3c-1.1 0-2-.9-2-2s.9-2 2-2h40.3c1.1 0 2 .9 2 2s-.9 2-2 2zM45.9 130.6h-3v-3c0-.8-.7-1.5-1.5-1.5s-1.5.7-1.5 1.5v3h-3c-.8 0-1.5.7-1.5 1.5s.7 1.5 1.5 1.5h3v3c0 .8.7 1.5 1.5 1.5s1.5-.7 1.5-1.5v-3h3c.8 0 1.5-.7 1.5-1.5s-.7-1.5-1.5-1.5zM290.8 184h-3v-3c0-.8-.7-1.5-1.5-1.5s-1.5.7-1.5 1.5v3h-3c-.8 0-1.5.7-1.5 1.5s.7 1.5 1.5 1.5h3v3c0 .8.7 1.5 1.5 1.5s1.5-.7 1.5-1.5v-3h3c.8 0 1.5-.7 1.5-1.5s-.7-1.5-1.5-1.5zM254.2 61.5c-2.8 0-5-2.2-5-5s2.2-5 5-5 5 2.2 5 5-2.2 5-5 5zm0-8c-1.7 0-3 1.3-3 3s1.3 3 3 3 3-1.3 3-3-1.3-3-3-3z"/><path class="st1" d="M89.2 147.2c-2.3 0-4.2-1.9-4.2-4.2s1.9-4.2 4.2-4.2 4.2 1.9 4.2 4.2-1.9 4.2-4.2 4.2zm0-6.3c-1.2 0-2.2 1-2.2 2.2s1 2.2 2.2 2.2 2.2-1 2.2-2.2-1-2.2-2.2-2.2z"/><path class="st2" d="M160.6 235.6c-.7 0-1.4 0-2.1-.1-1.4-.1-2.5-1.2-2.4-2.6.1-1.4 1.2-2.4 2.6-2.4.6 0 1.3 0 1.9.1 1.4 0 2.5 1.2 2.4 2.6 0 1.3-1.1 2.4-2.4 2.4zm8-.2c-1.3 0-2.4-1-2.5-2.3-.1-1.4 1-2.6 2.3-2.6l1.9-.1c1.4-.1 2.6.9 2.7 2.3.1 1.4-.9 2.6-2.3 2.7-.7.1-1.4.1-2 .1 0-.1-.1-.1-.1-.1zm-18-.5h-.3c-.7-.1-1.4-.2-2-.3-1.4-.2-2.3-1.5-2.1-2.8.2-1.4 1.5-2.3 2.8-2.1l1.9.3c1.4.2 2.3 1.4 2.2 2.8-.2 1.1-1.3 2.1-2.5 2.1zm27.9-.6c-1.2 0-2.3-.9-2.5-2.1-.2-1.4.7-2.6 2.1-2.9l1.9-.3c1.4-.2 2.7.7 2.9 2s-.7 2.7-2 2.9l-2 .3c-.1.1-.3.1-.4.1zm-37.8-1.1c-.2 0-.4 0-.5-.1-.7-.1-1.3-.3-2-.5-1.3-.3-2.2-1.7-1.8-3 .3-1.3 1.7-2.2 3-1.8.6.2 1.3.3 1.9.4 1.3.3 2.2 1.6 1.9 3-.3 1.2-1.3 2-2.5 2zm47.6-.9c-1.1 0-2.1-.7-2.4-1.9-.4-1.3.4-2.7 1.8-3.1l1.9-.5c1.3-.4 2.7.4 3.1 1.7.4 1.3-.4 2.7-1.7 3.1-.7.2-1.3.4-2 .5-.3.1-.5.2-.7.2zm-57.2-1.8c-.3 0-.5 0-.8-.1-.6-.2-1.3-.4-1.9-.7-1.3-.5-2-1.9-1.5-3.2.5-1.3 1.9-2 3.2-1.5l1.8.6c1.3.4 2 1.9 1.6 3.2-.4 1-1.3 1.7-2.4 1.7zm66.7-1.3c-1 0-2-.6-2.3-1.6-.5-1.3.2-2.7 1.5-3.2l1.8-.7c1.3-.5 2.7.1 3.2 1.4.5 1.3-.1 2.7-1.4 3.2-.6.3-1.3.5-1.9.7-.3.2-.6.2-.9.2zm-76-2.3c-.3 0-.7-.1-1-.2-.6-.3-1.2-.6-1.9-.9-1.2-.6-1.8-2.1-1.2-3.3.6-1.2 2.1-1.8 3.3-1.2l1.8.8c1.3.6 1.8 2 1.3 3.3-.4.9-1.4 1.5-2.3 1.5zm85.2-1.7c-.9 0-1.8-.5-2.2-1.4-.6-1.2-.1-2.7 1.1-3.3.6-.3 1.2-.6 1.7-.9 1.2-.6 2.7-.2 3.4 1.1.6 1.2.2 2.7-1.1 3.4l-1.8.9c-.4.1-.8.2-1.1.2zm-94.1-2.9c-.4 0-.9-.1-1.2-.3l-1.8-1c-1.2-.7-1.6-2.2-.9-3.4s2.2-1.6 3.4-.9l1.7 1c1.2.7 1.6 2.2.9 3.4-.4.8-1.2 1.2-2.1 1.2zm102.8-1.9c-.8 0-1.6-.4-2.1-1.2-.7-1.2-.4-2.7.8-3.4.6-.3 1.1-.7 1.6-1.1 1.2-.8 2.7-.4 3.5.7s.4 2.7-.7 3.5l-1.7 1.1c-.5.2-.9.4-1.4.4zm-111.2-3.5c-.5 0-1-.2-1.5-.5-.6-.4-1.1-.8-1.6-1.2-1.1-.8-1.3-2.4-.5-3.5s2.4-1.3 3.5-.5c.5.4 1 .8 1.6 1.1 1.1.8 1.4 2.4.6 3.5-.6.8-1.3 1.1-2.1 1.1zm119.4-2.3c-.7 0-1.5-.3-2-1-.8-1.1-.6-2.7.4-3.5l1.5-1.2c1.1-.9 2.6-.7 3.5.4.9 1.1.7 2.6-.4 3.5l-1.6 1.3c-.3.4-.9.5-1.4.5zm7.6-6.5c-.7 0-1.3-.3-1.8-.8-1-1-.9-2.6.1-3.5.5-.4.9-.9 1.4-1.4 1-1 2.6-1 3.5 0 1 1 1 2.6 0 3.5-.5.5-1 1-1.5 1.4-.5.6-1.1.8-1.7.8zm6.9-7.2c-.6 0-1.2-.2-1.6-.6-1-.9-1.2-2.5-.3-3.5.4-.5.8-1 1.3-1.5.9-1.1 2.5-1.2 3.5-.3 1.1.9 1.2 2.5.3 3.5-.4.5-.9 1-1.3 1.6-.5.5-1.2.8-1.9.8zm6.1-7.9c-.5 0-1-.1-1.4-.5-1.1-.8-1.4-2.4-.6-3.5l1.1-1.6c.8-1.1 2.3-1.5 3.5-.7 1.1.8 1.5 2.3.7 3.5l-1.2 1.7c-.5.8-1.3 1.1-2.1 1.1zm5.3-8.4c-.4 0-.8-.1-1.2-.3-1.2-.7-1.6-2.2-1-3.4l.9-1.7c.7-1.2 2.2-1.7 3.4-1s1.7 2.2 1 3.4c-.3.6-.6 1.2-1 1.8-.4.7-1.2 1.2-2.1 1.2zm4.5-9c-.3 0-.7-.1-1-.2-1.3-.6-1.8-2-1.3-3.3l.8-1.8c.5-1.3 2-1.9 3.3-1.4 1.3.5 1.9 2 1.4 3.3l-.8 1.9c-.5 1-1.5 1.5-2.4 1.5zm3.5-9.3c-.3 0-.5 0-.8-.1-1.3-.4-2-1.8-1.6-3.1.2-.6.4-1.2.6-1.9.4-1.3 1.8-2.1 3.1-1.7 1.3.4 2.1 1.8 1.7 3.1l-.6 2c-.4 1-1.3 1.7-2.4 1.7zm2.6-9.7c-.2 0-.4 0-.5-.1-1.4-.3-2.2-1.6-1.9-3l.4-1.9c.3-1.4 1.6-2.2 2.9-2 1.4.3 2.2 1.6 2 2.9l-.4 2c-.3 1.3-1.4 2.1-2.5 2.1zm1.6-9.8h-.3c-1.4-.2-2.4-1.4-2.2-2.8l.2-1.9c.1-1.4 1.3-2.4 2.7-2.3 1.4.1 2.4 1.3 2.3 2.7-.1.7-.1 1.4-.2 2-.1 1.3-1.2 2.3-2.5 2.3zm.6-10c-1.4 0-2.5-1.2-2.5-2.5v-2c0-1.4 1.1-2.5 2.5-2.5s2.5 1.1 2.5 2.5v2c0 1.4-1.1 2.5-2.5 2.5zm-.3-10c-1.3 0-2.4-1-2.5-2.3l-.2-1.9c-.1-1.4.8-2.6 2.2-2.8 1.4-.1 2.6.8 2.8 2.2.1.7.1 1.4.2 2 .1 1.4-.9 2.6-2.3 2.7-.1.1-.2.1-.2.1zm-1.4-9.9c-1.2 0-2.2-.8-2.5-2-.1-.6-.2-1.3-.4-1.9-.3-1.4.6-2.7 1.9-3 1.3-.3 2.7.6 3 1.9l.4 2c.3 1.4-.6 2.7-2 2.9-.1.1-.3.1-.4.1zm-2.4-9.7c-1.1 0-2.1-.7-2.4-1.8-.2-.6-.4-1.2-.6-1.9-.4-1.3.3-2.7 1.6-3.1 1.3-.4 2.7.3 3.1 1.6l.6 2c.4 1.3-.4 2.7-1.7 3.1-.1 0-.3.1-.6.1zm-3.3-9.4c-1 0-1.9-.6-2.3-1.6-.2-.6-.5-1.2-.8-1.8-.5-1.3 0-2.7 1.3-3.3 1.3-.5 2.7 0 3.3 1.3l.8 1.9c.5 1.3-.1 2.7-1.4 3.3-.3.1-.6.2-.9.2zm-4.2-9.1c-.9 0-1.8-.5-2.2-1.3l-.9-1.7c-.7-1.2-.2-2.7 1-3.4 1.2-.7 2.7-.2 3.4 1l1 1.8c.6 1.2.2 2.7-1 3.4-.5.1-.9.2-1.3.2z"/><path class="st3" d="M77.9 184.2c-.3 0-.6-.1-.9-.2l-14.2-5.5c-1.3-.5-1.9-2-1.4-3.2.5-1.3 2-1.9 3.2-1.4l11.8 4.6 4.7-12.1c.5-1.3 2-1.9 3.2-1.4 1.3.5 1.9 2 1.4 3.2l-5.6 14.4c-.3 1-1.2 1.6-2.2 1.6zM77.6 183.3c-.9 0-1.8-.5-2.2-1.3-12.8-24.3-15.4-52-7.4-78.2s25.8-47.6 50-60.4c36.6-19.4 81-14.9 113 11.4 1.1.9 1.2 2.5.3 3.5-.9 1.1-2.5 1.2-3.5.3-30.5-25-72.6-29.2-107.5-10.8-23 12.2-39.9 32.6-47.6 57.5-7.7 24.9-5.2 51.3 7 74.3.6 1.2.2 2.7-1 3.4-.3.2-.7.3-1.1.3z"/><path class="st2" d="M244.4 101.1c-.3 0-.7-.1-1-.2-1.6-.6-2.4-2.3-1.8-3.8l5.3-14.5c.3-.7.8-1.4 1.6-1.7.7-.3 1.5-.4 2.3-.1l14.3 5.2c1.6.6 2.4 2.3 1.8 3.8-.6 1.6-2.3 2.4-3.8 1.8l-11.5-4.2-4.3 11.7c-.5 1.2-1.7 2-2.9 2z"/><path class="st4" d="M202.6 79.5h-76.2c-6.1 0-11 4.9-11 11v59.8c0 6.1 4.9 11 11 11h7.9v17.9c0 .8.7 1.5 1.5 1.5.4 0 .8-.2 1.1-.4l19-19h46.7c6.1 0 11-4.9 11-11v-59.8c.1-6.1-4.9-11-11-11z"/><path class="st5" d="M135.9 182.7c-.9 0-1.8-.4-2.5-1-.7-.7-1-1.5-1-2.5v-15.9h-5.9c-7.1 0-13-5.9-13-13v-59.8c0-7.1 5.9-13 13-13h76.2c7.2 0 13 5.9 13 13v59.8c0 7.1-5.9 13-13 13h-45.9l-18.4 18.4c-.6.7-1.5 1-2.5 1zm-1.5-23.4h2v18.7l18.8-18.8h47.5c4.9 0 9-4.1 9-9v-59.7c0-5-4.1-9-9-9h-76.2c-4.9 0-9 4.1-9 9v59.8c0 4.9 4.1 9 9 9h7.9z"/><path class="st6" d="M209.1 85.5h-76.1c-6.1 0-11 4.9-11 11v59.8c0 6.1 4.9 11 11 11h7.9v17.9c0 .8.7 1.5 1.5 1.5.4 0 .8-.2 1.1-.4l19-19h46.7c6.1 0 11-4.9 11-11v-59.8c0-6.1-5-11-11.1-11z"/><path class="st7" d="M161.1 106.4h-30.2c-1.1 0-2-.9-2-2s.9-2 2-2h30.2c1.1 0 2 .9 2 2s-.9 2-2 2zM189.9 113.6h-59.1c-1.1 0-2-.9-2-2s.9-2 2-2h59.1c1.1 0 2 .9 2 2s-.9 2-2 2zM189.9 147.6h-59.1c-1.1 0-2-.9-2-2s.9-2 2-2h59.1c1.1 0 2 .9 2 2s-.9 2-2 2zM175.3 122.7h-44.5c-1.1 0-2-.9-2-2s.9-2 2-2h44.5c1.1 0 2 .9 2 2 0 1.2-.9 2-2 2zM142.8 131.9h-12c-1.1 0-2-.9-2-2s.9-2 2-2h12c1.1 0 2 .9 2 2s-.9 2-2 2zM177.1 131.9h-12.6c-1.1 0-2-.9-2-2s.9-2 2-2h12.6c1.1 0 2 .9 2 2s-.8 2-2 2zM192.9 131.9h-6.3c-1.1 0-2-.9-2-2s.9-2 2-2h6.3c1.1 0 2 .9 2 2s-.9 2-2 2z"/></svg>