<svg id="Layer_1" data-name="Layer 1" xmlns="http://www.w3.org/2000/svg" viewBox="0 0 360 240"><defs><style>.cls-1,.cls-10,.cls-12,.cls-15,.cls-16,.cls-5,.cls-6,.cls-7,.cls-8,.cls-9{fill:none;}.cls-1,.cls-10,.cls-5,.cls-6,.cls-7,.cls-8,.cls-9{stroke:#a6abb0;}.cls-1,.cls-10,.cls-12,.cls-15,.cls-16,.cls-5,.cls-6,.cls-9{stroke-linecap:round;}.cls-1,.cls-12,.cls-5,.cls-6,.cls-7,.cls-8{stroke-miterlimit:10;}.cls-1,.cls-12,.cls-16,.cls-5,.cls-6,.cls-9{stroke-width:4px;}.cls-1,.cls-14,.cls-3,.cls-4,.cls-8{opacity:0.3;}.cls-2{fill:#e4e6e7;opacity:0.4;}.cls-3{fill:#a6abb0;}.cls-6{stroke-dasharray:1.99 7.95;}.cls-15,.cls-7,.cls-8{stroke-width:2px;}.cls-7{opacity:0.7;}.cls-10,.cls-15,.cls-16,.cls-9{stroke-linejoin:round;}.cls-10{stroke-width:3px;}.cls-11{fill:#fff;}.cls-12,.cls-15,.cls-16{stroke:#81b441;}.cls-13,.cls-14{fill:#81b441;}.cls-13{opacity:0.22;}</style></defs><title>Exclusive</title><line class="cls-1" x1="120" y1="209.15" x2="55.67" y2="209.15"/><line class="cls-1" x1="325" y1="209.15" x2="276.96" y2="209.15"/><line class="cls-1" x1="145.05" y1="220.43" x2="108.55" y2="220.43"/><path class="cls-2" d="M109.75,68V59.55A10.32,10.32,0,0,1,120,49.27H228a10.32,10.32,0,0,1,10.29,10.29V68"/><line class="cls-1" x1="152.88" y1="152.43" x2="121.13" y2="152.43"/><line class="cls-1" x1="184.16" y1="161.61" x2="121.13" y2="161.61"/><line class="cls-1" x1="222.16" y1="162.34" x2="198.13" y2="162.34"/><line class="cls-1" x1="205.16" y1="170.79" x2="121.13" y2="170.79"/><line class="cls-1" x1="227.16" y1="134.08" x2="121.13" y2="134.08"/><line class="cls-1" x1="200.97" y1="143.25" x2="121.13" y2="143.25"/><line class="cls-1" x1="133.72" y1="179.97" x2="121.13" y2="179.97"/><line class="cls-1" x1="220.16" y1="179.97" x2="207.57" y2="179.97"/><path class="cls-3" d="M99.72,50.53h-3v-3a1.5,1.5,0,0,0-3,0v3h-3a1.5,1.5,0,0,0,0,3h3v3a1.5,1.5,0,1,0,3,0v-3h3a1.5,1.5,0,1,0,0-3Z"/><g class="cls-4"><path class="cls-5" d="M261.86,72.11l.58.81"/><path class="cls-6" d="M266.75,79.6a96.7,96.7,0,0,1,3.4,91.56"/><path class="cls-5" d="M268.32,174.7l-.48.87"/></g><circle class="cls-7" cx="254.7" cy="64.01" r="4"/><circle class="cls-8" cx="311.16" cy="194.93" r="4"/><path class="cls-3" d="M43.72,207.4h-3v-3a1.5,1.5,0,0,0-3,0v3h-3a1.5,1.5,0,0,0,0,3h3v3a1.5,1.5,0,0,0,3,0v-3h3a1.5,1.5,0,0,0,0-3Z"/><path class="cls-2" d="M239.65,190.27v8.45A10.32,10.32,0,0,1,229.36,209H121.45a10.32,10.32,0,0,1-10.29-10.29v-8.45"/><path class="cls-9" d="M110.67,83.12V59.29A10.32,10.32,0,0,1,121,49H228.87a10.32,10.32,0,0,1,10.29,10.29V198.51"/><circle class="cls-3" cx="176.93" cy="199.22" r="3.78"/><line class="cls-10" x1="180.74" y1="60" x2="168.16" y2="60"/><path class="cls-9" d="M110.67,130.44v68.17A10.32,10.32,0,0,0,121,208.9H228.87a10.32,10.32,0,0,0,10.29-10.29"/><circle class="cls-11" cx="245.67" cy="197.86" r="25.75"/><circle class="cls-12" cx="246.79" cy="198.3" r="20.59"/><circle class="cls-13" cx="249.63" cy="201.74" r="21.47"/><path class="cls-14" d="M190.36,112.27a68.6,68.6,0,0,1-1.8-8.34c-.06-1.47-1.8-2.48-1.8-2.48A28.66,28.66,0,0,0,180,98.6l.09-.09a.18.18,0,0,0,0-.22c-.23-.38-1.11-1.3-3.41-1.84a9.68,9.68,0,0,0,1.54-3.35.3.3,0,0,1,.35-.25c.45.08,1.22-.12,1.48-2.37v0c0-.13.41-1.67-1.13-1.34h-.26l0,0a1.27,1.27,0,0,0,.35-.41,6.49,6.49,0,0,0,.69-3.16,7.8,7.8,0,0,0-.84-3.44l-.18-.35a2.27,2.27,0,0,0-.27-.46c-2-2.36-6-2.58-7.35-2.07a7,7,0,0,0-2.64.63,6.7,6.7,0,0,0-2.33,3.52,10.82,10.82,0,0,0-.06,4.45,3.15,3.15,0,0,0,.58,1.32h-.21c-1.54-.32-1.16,1.22-1.13,1.34v0c.25,2.15,1,2.43,1.42,2.38a.39.39,0,0,1,.43.33,10.46,10.46,0,0,0,1.65,3.44c-2,.55-2.83,1.31-3.05,1.65a.18.18,0,0,0,0,.2,30.49,30.49,0,0,0-6.35,2.88s-1.75,1-1.8,2.48a68.6,68.6,0,0,1-1.8,8.34,23.36,23.36,0,0,0-.68,5.09H191A18.36,18.36,0,0,0,190.36,112.27Z"/><path class="cls-15" d="M192.36,114.27a68.6,68.6,0,0,1-1.8-8.34c-.06-1.47-1.8-2.48-1.8-2.48A28.66,28.66,0,0,0,182,100.6l.09-.09a.18.18,0,0,0,0-.22c-.23-.38-1.11-1.3-3.41-1.84a9.68,9.68,0,0,0,1.54-3.35.3.3,0,0,1,.35-.25c.45.08,1.22-.12,1.48-2.37v0c0-.13.41-1.67-1.13-1.34h-.26l0,0a1.27,1.27,0,0,0,.35-.41,6.49,6.49,0,0,0,.69-3.16,7.8,7.8,0,0,0-.84-3.44l-.18-.35a2.27,2.27,0,0,0-.27-.46c-2-2.36-6-2.58-7.35-2.07a7,7,0,0,0-2.64.63,6.7,6.7,0,0,0-2.33,3.52,10.82,10.82,0,0,0-.06,4.45,3.15,3.15,0,0,0,.58,1.32h-.21c-1.54-.32-1.16,1.22-1.13,1.34v0c.25,2.15,1,2.43,1.42,2.38a.39.39,0,0,1,.43.33,10.46,10.46,0,0,0,1.65,3.44c-2,.55-2.83,1.31-3.05,1.65a.18.18,0,0,0,0,.2,30.49,30.49,0,0,0-6.35,2.88s-1.75,1-1.8,2.48a68.6,68.6,0,0,1-1.8,8.34,23.36,23.36,0,0,0-.68,5.09H193A18.36,18.36,0,0,0,192.36,114.27Z"/><line class="cls-9" x1="110.67" y1="92.31" x2="110.67" y2="97.56"/><polyline class="cls-16" points="238.36 200.96 242.82 205.42 255.22 193.02"/></svg>