<svg id="Layer_1" data-name="Layer 1" xmlns="http://www.w3.org/2000/svg" viewBox="0 0 360 241"><defs><style>.cls-1,.cls-10,.cls-13,.cls-4,.cls-6,.cls-7,.cls-8{fill:none;}.cls-1,.cls-13,.cls-4,.cls-6,.cls-7,.cls-8{stroke:#a6abb0;}.cls-1,.cls-10,.cls-4,.cls-6,.cls-7,.cls-8{stroke-linecap:round;stroke-width:4px;}.cls-1,.cls-10,.cls-13,.cls-6,.cls-7{stroke-miterlimit:10;}.cls-1,.cls-12,.cls-13,.cls-5{opacity:0.3;}.cls-2{fill:#e4e6e7;opacity:0.4;}.cls-12,.cls-3{fill:#a6abb0;}.cls-3{opacity:0.5;}.cls-4,.cls-8{stroke-linejoin:round;}.cls-4{opacity:0.6;}.cls-7{stroke-dasharray:1.92 7.7;}.cls-9{fill:#fff;}.cls-10{stroke:#81b441;}.cls-11,.cls-14{fill:#81b441;}.cls-11{opacity:0.22;}.cls-13{stroke-width:2px;}.cls-14{font-size:28px;font-family:ArialRoundedMTBold, Arial Rounded MT Bold;}</style></defs><title>MultipleMarkets</title><line class="cls-1" x1="242.57" y1="211.32" x2="28.24" y2="211.32"/><line class="cls-1" x1="316.57" y1="211.32" x2="268.53" y2="211.32"/><line class="cls-1" x1="117.62" y1="222.59" x2="81.12" y2="222.59"/><path class="cls-2" d="M85.9,76.62V68.17A10.32,10.32,0,0,1,96.19,57.88H265.61A10.32,10.32,0,0,1,275.9,68.17v8.45Z"/><circle class="cls-3" cx="98.07" cy="68.12" r="2.68"/><circle class="cls-3" cx="107.41" cy="68.12" r="2.68"/><path class="cls-4" d="M264.37,177.92H193.91s0,5.5-5.5,5.5H171.33c-5.46,0-5.5-5.5-5.5-5.5H95.43"/><rect class="cls-2" x="94.9" y="83.92" width="170" height="50" rx="5.54" ry="5.54"/><rect class="cls-2" x="94.9" y="138.92" width="60" height="31" rx="5.38" ry="5.38"/><g class="cls-5"><line class="cls-6" x1="229.36" y1="141.36" x2="169.9" y2="141.36"/><line class="cls-6" x1="258.57" y1="150.55" x2="169.9" y2="150.55"/><line class="cls-6" x1="243.8" y1="159.74" x2="169.9" y2="159.74"/></g><g class="cls-5"><path class="cls-6" d="M306.58,82.26l.58.81"/><path class="cls-7" d="M311.34,89.53a96.19,96.19,0,0,1,12.85,38.55c2.16,19.56-2.41,35.42-14.32,58.34"/><path class="cls-6" d="M308.07,189.83l-.47.88"/></g><path class="cls-8" d="M145.4,57.38H95.08A10.32,10.32,0,0,0,84.79,67.67l.11,110.91H71s-2,19.68,11,19.68H277.79c13,0,11-19.68,11-19.68H274.9V68.92"/><circle class="cls-9" cx="275.02" cy="54.69" r="37.4"/><circle class="cls-10" cx="272.29" cy="52.42" r="29.91"/><circle class="cls-11" cx="276.42" cy="57.41" r="31.18"/><path class="cls-12" d="M73.46,48.36h-3v-3a1.5,1.5,0,0,0-3,0v3h-3a1.5,1.5,0,0,0,0,3h3v3a1.5,1.5,0,0,0,3,0v-3h3a1.5,1.5,0,0,0,0-3Z"/><circle class="cls-13" cx="68.93" cy="159.74" r="4"/><path class="cls-12" d="M306.73,158.24h-3v-3a1.5,1.5,0,0,0-3,0v3h-3a1.5,1.5,0,0,0,0,3h3v3a1.5,1.5,0,1,0,3,0v-3h3a1.5,1.5,0,0,0,0-3Z"/><text class="cls-14" transform="translate(257.57 62.52)">x7</text></svg>